<?xml version="1.0" standalone="no"?>
<!DOCTYPE svg PUBLIC "-//W3C//DTD SVG 20010904//EN"
 "http://www.w3.org/TR/2001/REC-SVG-20010904/DTD/svg10.dtd">
<svg version="1.0" xmlns="http://www.w3.org/2000/svg"
 width="399.000000pt" height="399.000000pt" viewBox="0 0 399.000000 399.000000"
 preserveAspectRatio="xMidYMid meet">
<metadata>
Created by potrace 1.11, written by Peter Selinger 2001-2013
</metadata>
<g transform="translate(0.000000,399.000000) scale(0.100000,-0.100000)"
fill="#000000" stroke="none">
<path d="M1848 3986 c-1 -2 -34 -6 -73 -10 -263 -25 -575 -132 -808 -278 -361
-226 -637 -552 -794 -943 -56 -138 -103 -309 -119 -428 -2 -17 -7 -57 -11 -87
-10 -73 -10 -347 0 -435 26 -246 119 -533 243 -748 50 -87 171 -259 224 -317
18 -19 47 -51 65 -70 58 -64 159 -152 255 -224 279 -209 606 -337 955 -374 90
-9 374 -8 445 2 245 34 436 92 645 196 122 61 330 197 393 257 10 10 45 43 78
74 276 262 468 591 557 959 26 106 30 129 46 255 9 71 7 412 -2 452 -3 11 -9
43 -12 70 -57 399 -282 824 -584 1107 -24 22 -54 51 -66 62 -38 38 -213 164
-287 208 -70 41 -240 126 -252 126 -3 0 -25 9 -49 19 -62 29 -249 82 -332 96
-11 2 -40 6 -65 10 -25 3 -56 8 -70 11 -26 7 -376 15 -382 10z"/>
</g>
</svg>
